<svg width="130" height="130" viewBox="0 0 130 130" fill="none" xmlns="http://www.w3.org/2000/svg">
<circle cx="65" cy="65" r="65" fill="#666666"/>
<g clip-path="url(#clip0)">
<path d="M104.375 36.915V42.375H25.625V36.915C25.625 33.0475 28.7575 29.915 32.625 29.915H97.375C101.243 29.915 104.375 33.0475 104.375 36.915Z" fill="#607D8B"/>
<path d="M104.375 42.375V97.92C104.375 100.09 102.625 101.875 100.455 101.875H29.545C27.375 101.875 25.625 100.09 25.625 97.92V42.375H104.375Z" fill="#ECEFF1"/>
<path d="M46.625 86.9999C45.953 86.9999 45.281 86.7444 44.77 86.2299C43.7445 85.2044 43.7445 83.5419 44.77 82.5164L54.2865 72.9999L44.7665 63.4799C43.741 62.4544 43.741 60.7919 44.7665 59.7664C45.792 58.7409 47.4545 58.7409 48.48 59.7664L59.855 71.1414C60.8805 72.1669 60.8805 73.8294 59.855 74.8549L48.48 86.2299C47.969 86.7444 47.297 86.9999 46.625 86.9999Z" fill="black"/>
<path d="M83.375 87H67.625C66.176 87 65 85.824 65 84.375C65 82.926 66.176 81.75 67.625 81.75H83.375C84.824 81.75 86 82.926 86 84.375C86 85.824 84.824 87 83.375 87Z" fill="black"/>
<path d="M97.375 104.5H32.625C27.3155 104.5 23 100.185 23 94.875V37.125C23 31.8155 27.3155 27.5 32.625 27.5H97.375C102.685 27.5 107 31.8155 107 37.125V94.875C107 100.185 102.685 104.5 97.375 104.5ZM32.625 32.75C30.2135 32.75 28.25 34.7135 28.25 37.125V94.875C28.25 97.2865 30.2135 99.25 32.625 99.25H97.375C99.7865 99.25 101.75 97.2865 101.75 94.875V37.125C101.75 34.7135 99.7865 32.75 97.375 32.75H32.625Z" fill="black"/>
<path d="M104.375 45H25.625C24.176 45 23 43.824 23 42.375C23 40.926 24.176 39.75 25.625 39.75H104.375C105.824 39.75 107 40.926 107 42.375C107 43.824 105.824 45 104.375 45Z" fill="black"/>
</g>
<defs>
<clipPath id="clip0">
<rect width="84" height="84" fill="white" transform="translate(23 24)"/>
</clipPath>
</defs>
</svg>
