<svg width="130" height="130" viewBox="0 0 130 130" fill="none" xmlns="http://www.w3.org/2000/svg">
<circle cx="65" cy="65" r="65" fill="#666666"/>
<g clip-path="url(#clip0)">
<path d="M107.166 66.5V73.8336C107.166 75.7034 106.47 77.3899 105.297 78.6736C101.006 74.5298 95.2131 72 88.8336 72C81.2435 72 74.4598 75.5933 70.0965 81.1664H30.1664C26.1334 81.1664 22.8336 77.8666 22.8336 73.8336V66.5C22.8336 62.467 26.1334 59.1664 30.1664 59.1664H99.8336C103.867 59.1664 107.166 62.467 107.166 66.5Z" fill="#455A64"/>
<path d="M63.1664 90.3336H61.3336V88.5C61.3336 87.4882 60.5118 86.6664 59.5 86.6664H52.1664C51.1547 86.6664 50.3336 87.4882 50.3336 88.5V90.3336H48.5C47.4882 90.3336 46.6664 91.1547 46.6664 92.1664V99.5C46.6664 100.512 47.4882 101.334 48.5 101.334H63.1664C64.1789 101.334 65 100.512 65 99.5V92.1664C65 91.1547 64.1789 90.3336 63.1664 90.3336Z" fill="#455A64"/>
<path d="M99.8336 28H30.1664C25.1102 28 21 32.1143 21 37.1664V44.5C21 49.5529 25.1102 53.6664 30.1664 53.6664H99.8336C104.89 53.6664 109 49.5529 109 44.5V37.1664C109 32.1143 104.89 28 99.8336 28Z" fill="#455A64"/>
<path d="M39.3336 40.8336C39.3336 43.8709 36.8709 46.3336 33.8336 46.3336C30.7955 46.3336 28.3336 43.8709 28.3336 40.8336C28.3336 37.7955 30.7955 35.3336 33.8336 35.3336C36.8709 35.3336 39.3336 37.7955 39.3336 40.8336Z" fill="#4CAF50"/>
<path d="M39.3336 70.1664C39.3336 73.2045 36.8709 75.6664 33.8336 75.6664C30.7955 75.6664 28.3336 73.2045 28.3336 70.1664C28.3336 67.1291 30.7955 64.6664 33.8336 64.6664C36.8709 64.6664 39.3336 67.1291 39.3336 70.1664Z" fill="#4CAF50"/>
<path d="M109 95.8336C109 106.971 99.9712 116 88.8336 116C77.6959 116 68.6664 106.971 68.6664 95.8336C68.6664 84.6959 77.6959 75.6664 88.8336 75.6664C99.9712 75.6664 109 84.6959 109 95.8336Z" fill="#00BCD4"/>
<path d="M88.8336 116C77.712 116 68.6664 106.954 68.6664 95.8336C68.6664 84.712 77.712 75.6664 88.8336 75.6664C99.9544 75.6664 109 84.712 109 95.8336C109 106.954 99.9544 116 88.8336 116ZM88.8336 79.3336C79.7363 79.3336 72.3336 86.7363 72.3336 95.8336C72.3336 104.93 79.7363 112.334 88.8336 112.334C97.9302 112.334 105.334 104.93 105.334 95.8336C105.334 86.7363 97.9302 79.3336 88.8336 79.3336Z" fill="black"/>
<path d="M96.1665 105C95.6972 105 95.2279 104.82 94.8687 104.465L80.2022 89.7978C79.4872 89.0828 79.4872 87.9206 80.2022 87.2056C80.9173 86.4906 82.0794 86.4906 82.7944 87.2056L97.4609 101.872C98.1759 102.587 98.1759 103.75 97.4609 104.465C97.1051 104.82 96.6358 105 96.1665 105Z" fill="black"/>
<path d="M81.5 105C81.0307 105 80.5614 104.82 80.2022 104.465C79.4872 103.75 79.4872 102.587 80.2022 101.872L94.8687 87.2056C95.5837 86.4906 96.7459 86.4906 97.4609 87.2056C98.1759 87.9206 98.1759 89.0828 97.4609 89.7978L82.7944 104.465C82.4386 104.82 81.9693 105 81.5 105Z" fill="black"/>
<path d="M67.801 83H30.1664C25.1143 83 21 78.8857 21 73.8336V66.5C21 61.4471 25.1143 57.3336 30.1664 57.3336H99.8336C104.886 57.3336 109 61.4471 109 66.5V73.8336C109 75.2415 108.659 76.6312 107.988 77.9586C107.53 78.8602 106.437 79.2308 105.524 78.7649C104.622 78.3063 104.259 77.2032 104.717 76.3009C105.124 75.4905 105.334 74.662 105.334 73.8336V66.5C105.334 63.4673 102.866 61 99.8336 61H30.1664C27.1345 61 24.6664 63.4673 24.6664 66.5V73.8336C24.6664 76.8655 27.1345 79.3336 30.1664 79.3336H67.801C68.8135 79.3336 69.6346 80.1547 69.6346 81.1664C69.6346 82.1789 68.8135 83 67.801 83Z" fill="black"/>
<path d="M33.8336 75.6664C30.8009 75.6664 28.3336 73.1991 28.3336 70.1664C28.3336 67.1345 30.8009 64.6664 33.8336 64.6664C36.8655 64.6664 39.3336 67.1345 39.3336 70.1664C39.3336 73.1991 36.8655 75.6664 33.8336 75.6664ZM33.8336 68.3336C32.8211 68.3336 32 69.1547 32 70.1664C32 71.1789 32.8211 72 33.8336 72C34.8453 72 35.6664 71.1789 35.6664 70.1664C35.6664 69.1547 34.8453 68.3336 33.8336 68.3336Z" fill="black"/>
<path d="M88.8336 72C87.8211 72 87 71.1789 87 70.1664V66.5C87 65.4882 87.8211 64.6664 88.8336 64.6664C89.8453 64.6664 90.6664 65.4882 90.6664 66.5V70.1664C90.6664 71.1789 89.8453 72 88.8336 72Z" fill="black"/>
<path d="M74.1664 75.6664C73.1547 75.6664 72.3336 74.8453 72.3336 73.8336V66.5C72.3336 65.4882 73.1547 64.6664 74.1664 64.6664C75.1789 64.6664 76 65.4882 76 66.5V73.8336C76 74.8453 75.1789 75.6664 74.1664 75.6664Z" fill="black"/>
<path d="M99.8336 53.6664H30.1664C25.1143 53.6664 21 49.5529 21 44.5V37.1664C21 32.1143 25.1143 28 30.1664 28H99.8336C104.886 28 109 32.1143 109 37.1664V44.5C109 49.5529 104.886 53.6664 99.8336 53.6664ZM30.1664 31.6664C27.1345 31.6664 24.6664 34.1345 24.6664 37.1664V44.5C24.6664 47.5327 27.1345 50 30.1664 50H99.8336C102.866 50 105.334 47.5327 105.334 44.5V37.1664C105.334 34.1345 102.866 31.6664 99.8336 31.6664H30.1664Z" fill="black"/>
<path d="M33.8336 46.3336C30.8009 46.3336 28.3336 43.8655 28.3336 40.8336C28.3336 37.8009 30.8009 35.3336 33.8336 35.3336C36.8655 35.3336 39.3336 37.8009 39.3336 40.8336C39.3336 43.8655 36.8655 46.3336 33.8336 46.3336ZM33.8336 39C32.8211 39 32 39.8211 32 40.8336C32 41.8453 32.8211 42.6664 33.8336 42.6664C34.8453 42.6664 35.6664 41.8453 35.6664 40.8336C35.6664 39.8211 34.8453 39 33.8336 39Z" fill="black"/>
<path d="M96.1664 46.3336C95.1547 46.3336 94.3336 45.5118 94.3336 44.5V37.1664C94.3336 36.1547 95.1547 35.3336 96.1664 35.3336C97.1789 35.3336 98 36.1547 98 37.1664V44.5C98 45.5118 97.1789 46.3336 96.1664 46.3336Z" fill="black"/>
<path d="M88.8336 46.3336C87.8211 46.3336 87 45.5118 87 44.5V37.1664C87 36.1547 87.8211 35.3336 88.8336 35.3336C89.8453 35.3336 90.6664 36.1547 90.6664 37.1664V44.5C90.6664 45.5118 89.8453 46.3336 88.8336 46.3336Z" fill="black"/>
<path d="M81.5 46.3336C80.4882 46.3336 79.6664 45.5118 79.6664 44.5V37.1664C79.6664 36.1547 80.4882 35.3336 81.5 35.3336C82.5118 35.3336 83.3336 36.1547 83.3336 37.1664V44.5C83.3336 45.5118 82.5118 46.3336 81.5 46.3336Z" fill="black"/>
<path d="M74.1664 46.3336C73.1547 46.3336 72.3336 45.5118 72.3336 44.5V37.1664C72.3336 36.1547 73.1547 35.3336 74.1664 35.3336C75.1789 35.3336 76 36.1547 76 37.1664V44.5C76 45.5118 75.1789 46.3336 74.1664 46.3336Z" fill="black"/>
<path d="M55.8336 61C54.8211 61 54 60.1789 54 59.1664V51.8336C54 50.8211 54.8211 50 55.8336 50C56.8453 50 57.6664 50.8211 57.6664 51.8336V59.1664C57.6664 60.1789 56.8453 61 55.8336 61Z" fill="black"/>
<path d="M63.1664 101.334H48.5C47.4882 101.334 46.6664 100.512 46.6664 99.5V92.1664C46.6664 91.1547 47.4882 90.3336 48.5 90.3336H50.3336V88.5C50.3336 87.4882 51.1547 86.6664 52.1664 86.6664H59.5C60.5118 86.6664 61.3336 87.4882 61.3336 88.5V90.3336H63.1664C64.1789 90.3336 65 91.1547 65 92.1664V99.5C65 100.512 64.1789 101.334 63.1664 101.334ZM50.3336 97.6664H61.3336V94H59.5C58.4882 94 57.6664 93.1789 57.6664 92.1664V90.3336H54V92.1664C54 93.1789 53.1789 94 52.1664 94H50.3336V97.6664Z" fill="black"/>
<path d="M55.8336 90.3336C54.8211 90.3336 54 89.5118 54 88.5V81.1664C54 80.1547 54.8211 79.3336 55.8336 79.3336C56.8453 79.3336 57.6664 80.1547 57.6664 81.1664V88.5C57.6664 89.5118 56.8453 90.3336 55.8336 90.3336Z" fill="black"/>
<path d="M48.5 97.6664H30.1664C29.1547 97.6664 28.3336 96.8453 28.3336 95.8336C28.3336 94.8211 29.1547 94 30.1664 94H48.5C49.5118 94 50.3336 94.8211 50.3336 95.8336C50.3336 96.8453 49.5118 97.6664 48.5 97.6664Z" fill="black"/>
<path d="M96.1664 73.0816C95.1547 73.0816 94.3336 72.2605 94.3336 71.248V66.5C94.3336 65.4882 95.1547 64.6664 96.1664 64.6664C97.1789 64.6664 98 65.4882 98 66.5V71.248C98 72.2605 97.1789 73.0816 96.1664 73.0816Z" fill="black"/>
<path d="M81.5 73.0816C80.4882 73.0816 79.6664 72.2605 79.6664 71.248V66.5C79.6664 65.4882 80.4882 64.6664 81.5 64.6664C82.5118 64.6664 83.3336 65.4882 83.3336 66.5V71.248C83.3336 72.2605 82.5118 73.0816 81.5 73.0816Z" fill="black"/>
</g>
<defs>
<clipPath id="clip0">
<rect width="88" height="88" fill="white" transform="translate(21 28)"/>
</clipPath>
</defs>
</svg>
