<svg width="57" height="57" viewBox="0 0 57 57" fill="none" xmlns="http://www.w3.org/2000/svg">
<g clip-path="url(#clip0)">
<path d="M56.1648 27.6649H42.7211V25.7652H46.3483C46.8094 25.7652 47.1833 25.3914 47.1833 24.9303C47.1833 24.4692 46.8094 24.0953 46.3483 24.0953H42.7211V22.1955H45.2394C46.1775 22.1955 47.0596 21.8302 47.7229 21.1668L53.2142 15.6755C53.572 15.8537 53.9687 15.9486 54.3801 15.9486C55.08 15.9486 55.7378 15.6761 56.2326 15.1813C56.7275 14.6865 57 14.0286 57 13.3288C57 12.629 56.7275 11.9712 56.2326 11.4763C55.7379 10.9815 55.08 10.7089 54.3801 10.7089C53.6803 10.7089 53.0225 10.9815 52.5277 11.4762C52.0328 11.9711 51.7603 12.6289 51.7603 13.3287C51.7603 13.7402 51.8551 14.1368 52.0334 14.4946L46.542 19.986C46.1941 20.3339 45.7314 20.5256 45.2393 20.5256H42.721V18.6833C42.721 16.2546 40.7451 14.2788 38.3165 14.2788H36.4742V6.88718C37.5104 6.53772 38.259 5.55726 38.259 4.40457C38.259 2.95998 37.0837 1.78481 35.6392 1.78481C34.1948 1.78481 33.0195 2.96009 33.0195 4.40457C33.0195 5.55726 33.768 6.53761 34.8043 6.88718V14.2787H32.9046V10.6515C32.9046 10.1904 32.5308 9.81654 32.0696 9.81654C31.6085 9.81654 31.2347 10.1904 31.2347 10.6515V14.2787H29.3349V0.834958C29.3349 0.373838 28.961 0 28.4999 0C28.0388 0 27.665 0.373838 27.665 0.834958V14.2787H25.7653V10.6515C25.7653 10.1904 25.3914 9.81654 24.9303 9.81654C24.4692 9.81654 24.0953 10.1904 24.0953 10.6515V14.2787H22.1956V11.7605C22.1956 10.8224 21.8303 9.94034 21.1669 9.27705L15.6736 3.78381C16.1589 2.80401 15.9963 1.5823 15.1814 0.767382C14.1599 -0.25405 12.4979 -0.253938 11.4765 0.767382C10.455 1.78881 10.455 3.45082 11.4765 4.47237C11.9872 4.98303 12.6581 5.23841 13.329 5.23841C13.7284 5.23841 14.1272 5.14568 14.4929 4.96455L19.9861 10.4579C20.3341 10.8058 20.5257 11.2685 20.5257 11.7605V14.2787H18.6835C18.3111 14.2787 17.9407 14.3254 17.5827 14.4175C17.1361 14.5324 16.8673 14.9876 16.9822 15.4342C17.0971 15.8809 17.5524 16.1497 17.9989 16.0347C18.221 15.9776 18.4513 15.9486 18.6834 15.9486H38.3165C39.8244 15.9486 41.0511 17.1754 41.0511 18.6832V38.3164C41.0511 38.5483 41.0222 38.7784 40.9652 39.0003C40.8504 39.447 41.1194 39.9021 41.5659 40.0168C41.6356 40.0348 41.7055 40.0433 41.7744 40.0433C42.1463 40.0433 42.4856 39.793 42.5824 39.416C42.6744 39.0584 42.721 38.6884 42.721 38.3163V36.4741H50.1125C50.462 37.5103 51.4424 38.2589 52.5951 38.2589C54.0397 38.2589 55.2149 37.0837 55.2149 35.6391C55.2149 34.1945 54.0396 33.0193 52.5951 33.0193C51.4424 33.0193 50.4621 33.7679 50.1125 34.8041H42.721V32.9043H46.3482C46.8093 32.9043 47.1831 32.5305 47.1831 32.0694C47.1831 31.6083 46.8093 31.2344 46.3482 31.2344H42.721V29.3348H56.1648C56.626 29.3348 56.9998 28.961 56.9998 28.4999C56.9998 28.0388 56.626 27.6649 56.1648 27.6649ZM53.7084 12.6572C53.8879 12.4777 54.1263 12.379 54.38 12.379C54.6338 12.379 54.8722 12.4777 55.0517 12.6572C55.2311 12.8366 55.3299 13.0751 55.3299 13.3288C55.3299 13.5825 55.2311 13.821 55.0517 14.0005C54.8722 14.1799 54.6338 14.2787 54.38 14.2787C54.1263 14.2787 53.8879 14.1799 53.7084 14.0005C53.5289 13.821 53.4302 13.5825 53.4302 13.3288C53.4302 13.0751 53.5289 12.8365 53.7084 12.6572ZM14.0005 3.29163C13.6302 3.66179 13.0276 3.6619 12.6571 3.29151C12.2867 2.92113 12.2867 2.31851 12.6571 1.94823C12.8423 1.76299 13.0855 1.67047 13.3288 1.67047C13.5721 1.67047 13.8153 1.7631 14.0005 1.94823C14.3709 2.31862 14.3709 2.92124 14.0005 3.29163ZM35.6392 5.35442C35.1156 5.35442 34.6894 4.92825 34.6894 4.40457C34.6894 3.88088 35.1154 3.45472 35.6392 3.45472C36.163 3.45472 36.5891 3.88088 36.5891 4.40457C36.5891 4.92825 36.1629 5.35442 35.6392 5.35442ZM52.5952 34.6894C53.119 34.6894 53.5451 35.1155 53.5451 35.6392C53.5451 36.163 53.1189 36.5891 52.5952 36.5891C52.0715 36.5891 51.6454 36.1629 51.6454 35.6392C51.6453 35.1154 52.0714 34.6894 52.5952 34.6894Z" fill="#B8B8B8"/>
<path d="M45.5234 52.5278C44.7086 51.7129 43.4868 51.5502 42.507 52.0355L37.0138 46.5422C36.6658 46.1943 36.4742 45.7316 36.4742 45.2395V42.7214H38.3164C38.6888 42.7214 39.0591 42.6746 39.417 42.5826C39.8635 42.4677 40.1324 42.0125 40.0175 41.5658C39.9026 41.1193 39.4476 40.8504 39.0008 40.9653C38.7788 41.0224 38.5485 41.0514 38.3164 41.0514H18.6833C17.1754 41.0514 15.9487 39.8245 15.9487 38.3167V18.6836C15.9487 18.4515 15.9776 18.2213 16.0347 17.9994C16.1497 17.5529 15.8809 17.0976 15.4344 16.9826C14.9877 16.8676 14.5325 17.1365 14.4176 17.583C14.3254 17.9408 14.2788 18.3111 14.2788 18.6836V20.5259H6.88718C6.53772 19.4896 5.55726 18.7411 4.40457 18.7411C2.95998 18.7411 1.78481 19.9162 1.78481 21.3608C1.78481 22.8054 2.96009 23.9806 4.40457 23.9806C5.55726 23.9806 6.53761 23.232 6.88718 22.1958H14.2787V24.0956H10.6515C10.1904 24.0956 9.81654 24.4694 9.81654 24.9305C9.81654 25.3917 10.1904 25.7655 10.6515 25.7655H14.2787V27.6652H0.834958C0.373838 27.6652 0 28.039 0 28.5002C0 28.9613 0.373838 29.3351 0.834958 29.3351H14.2787V31.2348H10.6515C10.1904 31.2348 9.81654 31.6087 9.81654 32.0698C9.81654 32.5309 10.1904 32.9047 10.6515 32.9047H14.2787V34.8045H11.7604C10.8223 34.8045 9.94023 35.1698 9.27694 35.8332L3.78559 41.3246C3.42778 41.1463 3.03112 41.0515 2.61965 41.0515C1.91985 41.0515 1.26201 41.324 0.767159 41.8187C0.27253 42.3136 0 42.9715 0 43.6712C0 44.3709 0.27253 45.0289 0.767382 45.5237C1.26212 46.0186 1.92007 46.291 2.61987 46.291C3.31968 46.291 3.97752 46.0185 4.47237 45.5237C4.96722 45.0289 5.23975 44.371 5.23975 43.6712C5.23975 43.2598 5.1449 42.8631 4.96666 42.5053L10.458 37.0139C10.8059 36.666 11.2686 36.4743 11.7608 36.4743H14.279V38.3166C14.279 40.7453 16.255 42.7212 18.6836 42.7212H20.5258V50.1127C19.4896 50.4621 18.741 51.4426 18.741 52.5953C18.741 54.0399 19.9163 55.215 21.3608 55.215C22.8053 55.215 23.9805 54.0397 23.9805 52.5953C23.9805 51.4426 23.232 50.4622 22.1957 50.1127V42.7212H24.0954V46.3483C24.0954 46.8095 24.4693 47.1833 24.9304 47.1833C25.3915 47.1833 25.7653 46.8095 25.7653 46.3483V42.7212H27.6649V56.1651C27.6649 56.6262 28.0388 57.0001 28.4999 57.0001C28.961 57.0001 29.3348 56.6262 29.3348 56.1651V42.7214H31.2345V46.3486C31.2345 46.8097 31.6084 47.1835 32.0695 47.1835C32.5306 47.1835 32.9045 46.8097 32.9045 46.3486V42.7214H34.8041V45.2395C34.8041 46.1777 35.1695 47.0597 35.8329 47.723L41.3262 53.2163C40.8409 54.196 41.0035 55.4178 41.8185 56.2327C42.3291 56.7435 43.0001 56.9987 43.671 56.9987C44.3418 56.9987 45.0128 56.7435 45.5234 56.2327C46.5449 55.2112 46.5449 53.5492 45.5234 52.5278ZM4.40457 22.3107C3.88077 22.3107 3.45472 21.8845 3.45472 21.3608C3.45472 20.837 3.88088 20.411 4.40457 20.411C4.92825 20.411 5.35442 20.8371 5.35442 21.3608C5.35453 21.8846 4.92837 22.3107 4.40457 22.3107ZM3.2914 44.3429C3.11194 44.5223 2.87348 44.6211 2.61976 44.6211C2.36605 44.6211 2.12758 44.5223 1.94812 44.3429C1.76866 44.1634 1.66992 43.9249 1.66992 43.6712C1.66992 43.4175 1.76866 43.1791 1.94812 42.9996C2.12758 42.8201 2.36605 42.7214 2.61976 42.7214C2.87348 42.7214 3.11194 42.8201 3.2914 42.9996C3.47086 43.1791 3.56961 43.4175 3.56961 43.6712C3.56961 43.9249 3.47086 44.1635 3.2914 44.3429ZM22.3104 52.5955C22.3104 53.1192 21.8844 53.5453 21.3606 53.5453C20.8368 53.5453 20.4107 53.1192 20.4107 52.5955C20.4107 52.0718 20.8369 51.6456 21.3606 51.6456C21.8842 51.6456 22.3104 52.0718 22.3104 52.5955ZM44.3427 55.0519C43.9723 55.4223 43.3697 55.4222 42.9993 55.0519C42.6289 54.6815 42.6289 54.0789 42.9993 53.7087C43.1846 53.5235 43.4278 53.4309 43.6711 53.4309C43.9143 53.4309 44.1576 53.5235 44.3427 53.7087C44.713 54.0789 44.713 54.6815 44.3427 55.0519Z" fill="#B8B8B8"/>
<path d="M37.3666 26.2692C37.3666 24.4835 36.0605 22.9709 34.2725 22.4794C34.3253 22.261 34.3547 22.0365 34.3547 21.807C34.3547 20.1164 32.8541 18.741 31.0099 18.741C30.0108 18.741 29.1134 19.145 28.5 19.7836C27.8866 19.145 26.9891 18.741 25.9901 18.741C24.1458 18.741 22.6453 20.1164 22.6453 21.807C22.6453 22.0365 22.6747 22.261 22.7276 22.4794C20.9395 22.9708 19.6334 24.4834 19.6334 26.2692C19.6334 27.1419 19.9422 27.9652 20.5128 28.6452C19.9549 29.3674 19.6334 30.2441 19.6334 31.1775C19.6332 32.5971 20.3918 33.9227 21.6412 34.745C21.6412 34.7457 21.6412 34.7463 21.6412 34.747C21.6412 36.6836 23.3669 38.2593 25.4881 38.2593C26.7072 38.2593 27.7947 37.7384 28.5 36.9281C29.2053 37.7384 30.2928 38.2593 31.5119 38.2593C33.5533 38.2593 35.2275 36.7998 35.3507 34.9637C36.5905 34.2443 37.3666 32.9842 37.3666 31.6236C37.3666 30.6227 36.9399 29.668 36.2054 28.9464C36.9398 28.2247 37.3666 27.2699 37.3666 26.2692ZM34.4115 29.6847C35.2161 30.1093 35.6963 30.8342 35.6963 31.6236C35.6963 32.2122 35.4228 32.7736 34.9608 33.1934C34.5218 32.3806 33.746 31.7336 32.7657 31.4256C32.326 31.2875 31.8572 31.5321 31.7189 31.9719C31.5807 32.4119 31.8254 32.8806 32.2652 33.0187C33.1164 33.2863 33.6884 33.9808 33.6884 34.7471C33.6884 35.763 32.7119 36.5895 31.5114 36.5895C30.3111 36.5895 29.3345 35.763 29.3345 34.7471V29.3926C29.3345 28.3767 30.3111 27.5503 31.5114 27.5503C31.9725 27.5503 32.3464 27.1765 32.3464 26.7154C32.3464 26.2542 31.9725 25.8804 31.5114 25.8804C30.7038 25.8804 29.9539 26.1093 29.3345 26.4991V25.4325C29.3345 24.9714 28.9607 24.5976 28.4996 24.5976C28.0384 24.5976 27.6646 24.9714 27.6646 25.4325V30.0679C27.3836 29.8915 27.0755 29.7456 26.7421 29.6408C26.302 29.5026 25.8335 29.7473 25.6953 30.187C25.5571 30.627 25.8016 31.0957 26.2415 31.2339C27.0927 31.5015 27.6646 32.196 27.6646 32.9622V34.747C27.6646 35.7629 26.688 36.5894 25.4877 36.5894C24.2873 36.5894 23.3107 35.7629 23.3107 34.747C23.3107 34.3116 23.4953 33.8883 23.8304 33.5552C24.1574 33.2302 24.159 32.7015 23.8339 32.3744C23.5089 32.0473 22.9803 32.0457 22.6532 32.3708C22.4531 32.5698 22.2809 32.7871 22.1377 33.0181C21.6105 32.5193 21.3027 31.8632 21.3027 31.1773C21.3027 29.9402 22.2736 28.8534 23.6637 28.5345C24.1131 28.4314 24.3939 27.9834 24.2908 27.534C24.1877 27.0844 23.7396 26.8038 23.2903 26.9069C22.7307 27.0352 22.2154 27.2495 21.7586 27.5308C21.4623 27.1588 21.3028 26.7231 21.3028 26.2689C21.3031 25.0131 22.4937 23.9906 23.9613 23.9809C23.9687 23.9812 23.9762 23.9822 23.9836 23.9822C24.1741 23.9822 24.3657 23.9173 24.5226 23.7844C24.8427 23.5135 24.9069 23.0537 24.692 22.7078C24.6857 22.6976 24.6799 22.6871 24.6732 22.6772C24.6698 22.6722 24.6657 22.6674 24.6621 22.6624C24.6492 22.6442 24.6359 22.6264 24.6216 22.6093C24.6211 22.6087 24.6208 22.6082 24.6203 22.6077C24.4811 22.4431 24.3149 22.1705 24.3149 21.8069C24.3149 21.0371 25.0663 20.4108 25.9898 20.4108C26.9133 20.4108 27.6647 21.0371 27.6647 21.8069C27.6647 22.2681 28.0386 22.6419 28.4997 22.6419C28.9608 22.6419 29.3346 22.2681 29.3346 21.8069C29.3346 21.0371 30.0861 20.4108 31.0096 20.4108C31.933 20.4108 32.6845 21.0371 32.6845 21.8069C32.6845 22.0127 32.6306 22.1881 32.5592 22.3324C32.0843 22.3773 31.625 22.492 31.1889 22.676C30.764 22.8551 30.5648 23.3448 30.7439 23.7697C30.9231 24.1946 31.4128 24.394 31.8377 24.2147C32.1986 24.0625 32.587 23.9843 32.992 23.9812C33 23.9814 33.0079 23.9822 33.0159 23.9822C33.0234 23.9822 33.0307 23.9812 33.0382 23.9809C34.5058 23.9905 35.6963 25.0131 35.6963 26.2689C35.6963 27.0584 35.2161 27.7831 34.4115 28.2078C34.1376 28.3523 33.9662 28.6365 33.9662 28.9463C33.9662 29.256 34.1376 29.5402 34.4115 29.6847Z" fill="#B8B8B8"/>
</g>
<defs>
<clipPath id="clip0">
<rect width="57" height="57" fill="white"/>
</clipPath>
</defs>
</svg>
