<svg width="40" height="40" viewBox="0 0 40 40" fill="none" xmlns="http://www.w3.org/2000/svg">
<path d="M39.4139 19.4141H29.9797V18.0809H32.5251C32.8487 18.0809 33.111 17.8186 33.111 17.495C33.111 17.1714 32.8487 16.9091 32.5251 16.9091H29.9797V15.5759H31.7469C32.4053 15.5759 33.0243 15.3195 33.4897 14.854L37.3433 11.0004C37.5944 11.1255 37.8727 11.1921 38.1615 11.1921C38.6526 11.1921 39.1142 11.0008 39.4615 10.6536C39.8088 10.3064 40 9.84472 40 9.35363C40 8.86254 39.8088 8.4009 39.4615 8.05364C39.1143 7.70637 38.6526 7.51513 38.1615 7.51513C37.6704 7.51513 37.2088 7.70637 36.8615 8.05356C36.5142 8.40082 36.323 8.86246 36.323 9.35356C36.323 9.6423 36.3896 9.92066 36.5146 10.1718L32.6611 14.0253C32.4169 14.2695 32.0922 14.404 31.7468 14.404H29.9797V13.1112C29.9797 11.4068 28.593 10.0203 26.8887 10.0203H25.5959V4.83318C26.3231 4.58795 26.8484 3.8999 26.8484 3.091C26.8484 2.07726 26.0237 1.25257 25.01 1.25257C23.9963 1.25257 23.1716 2.07733 23.1716 3.091C23.1716 3.8999 23.6969 4.58787 24.4241 4.83318V10.0202H23.0909V7.47481C23.0909 7.15122 22.8286 6.88888 22.505 6.88888C22.1814 6.88888 21.9191 7.15122 21.9191 7.47481V10.0202H20.5859V0.586012C20.5859 0.262419 20.3235 7.62939e-05 19.9999 7.62939e-05C19.6763 7.62939e-05 19.414 0.262419 19.414 0.586012V10.0202H18.0809V7.47481C18.0809 7.15122 17.8185 6.88888 17.4949 6.88888C17.1713 6.88888 16.909 7.15122 16.909 7.47481V10.0202H15.5759V8.25309C15.5759 7.59473 15.3195 6.97575 14.8539 6.51029L10.999 2.65538C11.3396 1.9678 11.2254 1.11046 10.6536 0.53859C9.93677 -0.178204 8.77044 -0.178126 8.05365 0.53859C7.33685 1.25538 7.33685 2.42171 8.05365 3.13858C8.41208 3.49694 8.88286 3.67616 9.35364 3.67616C9.63395 3.67616 9.9138 3.61108 10.1704 3.48397L14.0253 7.33895C14.2696 7.58309 14.404 7.90778 14.404 8.25309V10.0202H13.1112C12.8499 10.0202 12.59 10.053 12.3387 10.1176C12.0254 10.1982 11.8367 10.5177 11.9173 10.8311C11.9979 11.1446 12.3175 11.3332 12.6308 11.2525C12.7867 11.2125 12.9482 11.1921 13.1111 11.1921H26.8887C27.9469 11.1921 28.8078 12.053 28.8078 13.1111V26.8888C28.8078 27.0515 28.7875 27.213 28.7475 27.3687C28.6669 27.6822 28.8557 28.0015 29.169 28.0821C29.2179 28.0947 29.267 28.1007 29.3154 28.1007C29.5764 28.1007 29.8144 27.925 29.8824 27.6604C29.9469 27.4095 29.9797 27.1498 29.9797 26.8887V25.5959H35.1667C35.4119 26.3231 36.0999 26.8484 36.9088 26.8484C37.9226 26.8484 38.7473 26.0237 38.7473 25.01C38.7473 23.9962 37.9225 23.1715 36.9088 23.1715C36.0999 23.1715 35.412 23.6969 35.1667 24.424H29.9797V23.0908H32.525C32.8486 23.0908 33.111 22.8285 33.111 22.5049C33.111 22.1813 32.8486 21.919 32.525 21.919H29.9797V20.5859H39.4139C39.7375 20.5859 39.9999 20.3236 39.9999 20C39.9999 19.6764 39.7375 19.4141 39.4139 19.4141ZM37.6901 8.88231C37.816 8.75637 37.9834 8.68707 38.1614 8.68707C38.3395 8.68707 38.5068 8.75637 38.6327 8.88231C38.7587 9.00824 38.828 9.17559 38.828 9.35363C38.828 9.53168 38.7587 9.69902 38.6327 9.82496C38.5068 9.9509 38.3395 10.0202 38.1614 10.0202C37.9834 10.0202 37.816 9.9509 37.6901 9.82496C37.5642 9.69902 37.4949 9.53168 37.4949 9.35363C37.4949 9.17559 37.5642 9.00817 37.6901 8.88231ZM9.82489 2.30999C9.56505 2.56975 9.14216 2.56983 8.88216 2.30991C8.62224 2.04999 8.62224 1.6271 8.88216 1.36726C9.01216 1.23726 9.18278 1.17234 9.35356 1.17234C9.52427 1.17234 9.69497 1.23734 9.82489 1.36726C10.0848 1.62718 10.0848 2.05007 9.82489 2.30999ZM25.01 3.75756C24.6425 3.75756 24.3434 3.4585 24.3434 3.091C24.3434 2.7235 24.6424 2.42444 25.01 2.42444C25.3776 2.42444 25.6765 2.7235 25.6765 3.091C25.6765 3.4585 25.3775 3.75756 25.01 3.75756ZM36.9089 24.3435C37.2765 24.3435 37.5755 24.6426 37.5755 25.0101C37.5755 25.3776 37.2764 25.6766 36.9089 25.6766C36.5414 25.6766 36.2424 25.3776 36.2424 25.0101C36.2423 24.6425 36.5413 24.3435 36.9089 24.3435Z" fill="#B8B8B8"/>
<path d="M31.9463 36.8615C31.3745 36.2897 30.5171 36.1755 29.8295 36.5161L25.9746 32.6611C25.7304 32.4169 25.5959 32.0922 25.5959 31.7469V29.9798H26.8887C27.15 29.9798 27.4099 29.947 27.6611 29.8824C27.9744 29.8018 28.1631 29.4823 28.0825 29.1689C28.0018 28.8555 27.6825 28.6669 27.369 28.7475C27.2132 28.7876 27.0516 28.8079 26.8887 28.8079H13.1111C12.0529 28.8079 11.1921 27.9469 11.1921 26.8888V13.1112C11.1921 12.9483 11.2124 12.7868 11.2525 12.6311C11.3332 12.3177 11.1445 11.9982 10.8311 11.9175C10.5177 11.8368 10.1982 12.0255 10.1176 12.3389C10.0529 12.59 10.0202 12.8498 10.0202 13.1112V14.404H4.83311C4.58787 13.6768 3.89983 13.1515 3.09092 13.1515C2.07718 13.1515 1.25249 13.9762 1.25249 14.99C1.25249 16.0037 2.07726 16.8284 3.09092 16.8284C3.89983 16.8284 4.58779 16.3031 4.83311 15.5759H10.0201V16.9091H7.47474C7.15114 16.9091 6.8888 17.1714 6.8888 17.495C6.8888 17.8186 7.15114 18.081 7.47474 18.081H10.0201V19.4141H0.585935C0.262343 19.4141 0 19.6764 0 20C0 20.3236 0.262343 20.586 0.585935 20.586H10.0201V21.9191H7.47474C7.15114 21.9191 6.8888 22.1814 6.8888 22.505C6.8888 22.8286 7.15114 23.0909 7.47474 23.0909H10.0201V24.4241H8.25294C7.59458 24.4241 6.9756 24.6805 6.51013 25.146L2.65655 28.9996C2.40546 28.8745 2.1271 28.808 1.83835 28.808C1.34726 28.808 0.885621 28.9992 0.538357 29.3464C0.191249 29.6937 0 30.1554 0 30.6464C0 31.1374 0.191249 31.5991 0.538513 31.9464C0.8857 32.2936 1.34742 32.4848 1.83851 32.4848C2.3296 32.4848 2.79124 32.2936 3.1385 31.9464C3.48577 31.5991 3.67702 31.1375 3.67702 30.6464C3.67702 30.3576 3.61045 30.0793 3.48538 29.8282L7.33896 25.9746C7.5831 25.7305 7.90778 25.5959 8.25317 25.5959H10.0204V26.8887C10.0204 28.5931 11.407 29.9797 13.1113 29.9797H14.4041V35.1667C13.6769 35.4119 13.1516 36.1 13.1516 36.9089C13.1516 37.9226 13.9764 38.7473 14.99 38.7473C16.0037 38.7473 16.8284 37.9225 16.8284 36.9089C16.8284 36.1 16.3031 35.412 15.576 35.1667V29.9797H16.9091V32.5251C16.9091 32.8486 17.1714 33.111 17.495 33.111C17.8186 33.111 18.0809 32.8486 18.0809 32.5251V29.9797H19.414V39.414C19.414 39.7376 19.6763 40 19.9999 40C20.3235 40 20.5859 39.7376 20.5859 39.414V29.9798H21.919V32.5252C21.919 32.8488 22.1813 33.1111 22.5049 33.1111C22.8285 33.1111 23.0908 32.8488 23.0908 32.5252V29.9798H24.424V31.7469C24.424 32.4053 24.6804 33.0243 25.1459 33.4897L29.0008 37.3446C28.6603 38.0322 28.7744 38.8896 29.3463 39.4614C29.7046 39.8199 30.1755 39.999 30.6463 39.999C31.1171 39.999 31.5879 39.8199 31.9463 39.4614C32.6631 38.7446 32.6631 37.5783 31.9463 36.8615ZM3.09092 15.6565C2.72335 15.6565 2.42437 15.3575 2.42437 14.99C2.42437 14.6224 2.72343 14.3234 3.09092 14.3234C3.45842 14.3234 3.75748 14.6225 3.75748 14.99C3.75756 15.3575 3.4585 15.6565 3.09092 15.6565ZM2.30976 31.1177C2.18382 31.2437 2.01648 31.313 1.83843 31.313C1.66038 31.313 1.49304 31.2437 1.3671 31.1177C1.24117 30.9918 1.17187 30.8244 1.17187 30.6464C1.17187 30.4683 1.24117 30.301 1.3671 30.1751C1.49304 30.0491 1.66038 29.9798 1.83843 29.9798C2.01648 29.9798 2.18382 30.0491 2.30976 30.1751C2.43569 30.301 2.50499 30.4683 2.50499 30.6464C2.50499 30.8244 2.43569 30.9919 2.30976 31.1177ZM15.6564 36.909C15.6564 37.2765 15.3574 37.5756 14.9899 37.5756C14.6223 37.5756 14.3233 37.2765 14.3233 36.909C14.3233 36.5415 14.6224 36.2425 14.9899 36.2425C15.3574 36.2425 15.6564 36.5415 15.6564 36.909ZM31.1177 38.6328C30.8578 38.8928 30.4349 38.8927 30.175 38.6328C29.915 38.3729 29.915 37.95 30.175 37.6902C30.305 37.5603 30.4757 37.4953 30.6464 37.4953C30.8171 37.4953 30.9878 37.5603 31.1177 37.6902C31.3775 37.95 31.3775 38.3729 31.1177 38.6328Z" fill="#B8B8B8"/>
<path d="M26.2222 18.4345C26.2222 17.1813 25.3056 16.1199 24.0508 15.7749C24.0879 15.6217 24.1086 15.4642 24.1086 15.3031C24.1086 14.1167 23.0555 13.1515 21.7613 13.1515C21.0602 13.1515 20.4305 13.435 20 13.8831C19.5695 13.435 18.9397 13.1515 18.2387 13.1515C16.9444 13.1515 15.8914 14.1167 15.8914 15.3031C15.8914 15.4642 15.912 15.6217 15.9492 15.7749C14.6944 16.1198 13.7778 17.1813 13.7778 18.4345C13.7778 19.0469 13.9946 19.6247 14.3949 20.1019C14.0035 20.6087 13.7778 21.2239 13.7778 21.8789C13.7777 22.8751 14.31 23.8054 15.1868 24.3824C15.1868 24.3829 15.1868 24.3833 15.1868 24.3838C15.1868 25.7429 16.3978 26.8486 17.8864 26.8486C18.7419 26.8486 19.5051 26.483 20 25.9144C20.4949 26.483 21.2581 26.8486 22.1136 26.8486C23.5462 26.8486 24.7211 25.8243 24.8075 24.5359C25.6776 24.0311 26.2222 23.1468 26.2222 22.1919C26.2222 21.4896 25.9227 20.8196 25.4073 20.3132C25.9226 19.8068 26.2222 19.1367 26.2222 18.4345ZM24.1484 20.8313C24.713 21.1293 25.0501 21.638 25.0501 22.1919C25.0501 22.605 24.8581 22.999 24.5339 23.2936C24.2258 22.7232 23.6814 22.2691 22.9935 22.053C22.6849 21.9561 22.3559 22.1277 22.2589 22.4364C22.1619 22.7451 22.3336 23.074 22.6423 23.171C23.2396 23.3587 23.641 23.8461 23.641 24.3839C23.641 25.0968 22.9557 25.6768 22.1133 25.6768C21.2709 25.6768 20.5856 25.0968 20.5856 24.3839V20.6263C20.5856 19.9134 21.2709 19.3335 22.1133 19.3335C22.4369 19.3335 22.6992 19.0712 22.6992 18.7476C22.6992 18.424 22.4369 18.1616 22.1133 18.1616C21.5466 18.1616 21.0203 18.3223 20.5856 18.5958V17.8473C20.5856 17.5238 20.3233 17.2614 19.9997 17.2614C19.6761 17.2614 19.4137 17.5238 19.4137 17.8473V21.1002C19.2166 20.9765 19.0003 20.8741 18.7664 20.8005C18.4575 20.7035 18.1288 20.8752 18.0318 21.1838C17.9348 21.4926 18.1064 21.8215 18.4151 21.9185C19.0124 22.1062 19.4137 22.5937 19.4137 23.1313V24.3838C19.4137 25.0967 18.7284 25.6767 17.8861 25.6767C17.0437 25.6767 16.3584 25.0967 16.3584 24.3838C16.3584 24.0783 16.4879 23.7812 16.7231 23.5475C16.9526 23.3194 16.9537 22.9483 16.7256 22.7188C16.4974 22.4893 16.1265 22.4882 15.897 22.7163C15.7566 22.8559 15.6357 23.0084 15.5352 23.1705C15.1652 22.8205 14.9492 22.3601 14.9492 21.8787C14.9492 21.0106 15.6306 20.248 16.6061 20.0241C16.9215 19.9518 17.1185 19.6374 17.0462 19.322C16.9738 19.0066 16.6594 18.8096 16.3441 18.882C15.9513 18.972 15.5898 19.1224 15.2692 19.3198C15.0613 19.0587 14.9493 18.753 14.9493 18.4343C14.9495 17.553 15.785 16.8355 16.8149 16.8287C16.8202 16.8288 16.8254 16.8295 16.8306 16.8295C16.9643 16.8295 17.0988 16.784 17.2088 16.6908C17.4334 16.5006 17.4785 16.178 17.3277 15.9352C17.3233 15.9281 17.3192 15.9207 17.3145 15.9138C17.3121 15.9102 17.3092 15.9069 17.3067 15.9034C17.2977 15.8906 17.2884 15.8781 17.2783 15.8661C17.278 15.8657 17.2777 15.8653 17.2774 15.865C17.1797 15.7495 17.0631 15.5582 17.0631 15.3031C17.0631 14.7628 17.5904 14.3233 18.2384 14.3233C18.8865 14.3233 19.4138 14.7628 19.4138 15.3031C19.4138 15.6267 19.6762 15.889 19.9998 15.889C20.3234 15.889 20.5857 15.6267 20.5857 15.3031C20.5857 14.7628 21.113 14.3233 21.7611 14.3233C22.4091 14.3233 22.9365 14.7628 22.9365 15.3031C22.9365 15.4474 22.8987 15.5706 22.8486 15.6718C22.5153 15.7033 22.193 15.7838 21.8869 15.9129C21.5887 16.0386 21.449 16.3823 21.5747 16.6805C21.7004 16.9786 22.044 17.1185 22.3423 16.9927C22.5955 16.8859 22.868 16.831 23.1522 16.8288C23.1579 16.829 23.1634 16.8295 23.169 16.8295C23.1743 16.8295 23.1794 16.8288 23.1847 16.8287C24.2146 16.8354 25.0501 17.553 25.0501 18.4343C25.0501 18.9883 24.713 19.4969 24.1484 19.7949C23.9562 19.8963 23.8359 20.0958 23.8359 20.3131C23.8359 20.5305 23.9562 20.7299 24.1484 20.8313Z" fill="#B8B8B8"/>
</svg>
