<svg width="130" height="130" viewBox="0 0 130 130" fill="none" xmlns="http://www.w3.org/2000/svg">
<circle cx="65" cy="65" r="65" fill="#666666"/>
<g clip-path="url(#clip0)">
<path d="M77.56 107.44C73.62 103.5 73.504 99.684 73.5 99.492C73.496 98.668 72.828 98 72 98H59.94C59.112 98 58.44 98.68 58.44 99.508C58.44 99.668 58.388 103.492 54.44 107.44C54.012 107.868 53.88 108.512 54.116 109.076C54.348 109.636 54.896 110 55.5 110H76.5C77.108 110 77.656 109.636 77.884 109.076C78.112 108.516 77.988 107.868 77.56 107.44Z" fill="#90A4AE"/>
<path d="M103.584 36H28.416C24.88 36 22 38.772 22 42.176V89.824C22 93.228 24.88 96 28.416 96H103.584C107.12 96 110 93.228 110 89.824V42.176C110 38.772 107.12 36 103.584 36Z" fill="#607D8B"/>
<path d="M22 35H110V87H22V35Z" fill="white"/>
<path d="M51.856 72H36.144C34.96 72 34 70.956 34 69.668V46.332C34 45.044 34.96 44 36.144 44H51.86C53.04 44 54 45.044 54 46.332V69.664C54 70.956 53.04 72 51.856 72Z" fill="#42A5F5"/>
<path d="M87.748 67H68.248C67.004 67 66 66.232 66 65.284V60.712C66 59.764 67.008 58.996 68.248 58.996H87.748C88.992 58.996 90 59.764 90 60.712V65.284C90 66.232 88.992 67 87.748 67Z" fill="#42A5F5"/>
<path d="M55 76H33C31.344 76 30 74.656 30 73V43C30 41.344 31.344 40 33 40H55C56.656 40 58 41.344 58 43V73C58 74.656 56.656 76 55 76ZM36 70H52V46H36V70Z" fill="black"/>
<path d="M95 50H65C63.344 50 62 48.656 62 47C62 45.344 63.344 44 65 44H95C96.656 44 98 45.344 98 47C98 48.656 96.656 50 95 50Z" fill="black"/>
<path d="M91 70H65C63.344 70 62 68.656 62 67V59C62 57.344 63.344 56 65 56H91C92.656 56 94 57.344 94 59V67C94 68.656 92.656 70 91 70ZM68 64H88V62H68V64Z" fill="black"/>
<path d="M107.104 100H24.896C21.092 100 18 96.908 18 93.104V38.896C18 35.092 21.092 32 24.896 32H107.108C110.908 32 114 35.092 114 38.896V93.108C114 96.908 110.908 100 107.104 100ZM24.896 38C24.404 38 24 38.4 24 38.896V93.108C24 93.6 24.404 94 24.896 94H107.108C107.6 94 108.004 93.6 108.004 93.104V38.896C108 38.4 107.596 38 107.104 38H24.896Z" fill="black"/>
<path d="M79 112H53C51.756 112 50.644 111.236 50.2 110.072C49.756 108.912 50.072 107.596 50.996 106.768C55.364 102.848 55.492 99.148 55.496 98.992C55.532 97.36 56.864 96 58.496 96H73.428C75.068 96 76.404 97.32 76.428 98.956C76.436 99.188 76.66 102.872 81.004 106.768C81.928 107.6 82.248 108.912 81.8 110.072C81.356 111.236 80.244 112 79 112ZM59.332 106H72.652C71.772 104.504 71.24 103.132 70.92 102H61.028C60.72 103.132 60.2 104.504 59.332 106ZM76.428 99H76.468H76.428Z" fill="black"/>
<path d="M111 90H21C19.344 90 18 88.656 18 87C18 85.344 19.344 84 21 84H111C112.656 84 114 85.344 114 87C114 88.656 112.656 90 111 90Z" fill="black"/>
</g>
<defs>
<clipPath id="clip0">
<rect width="96" height="96" fill="white" transform="translate(18 16)"/>
</clipPath>
</defs>
</svg>
