<svg width="130" height="130" viewBox="0 0 130 130" fill="none" xmlns="http://www.w3.org/2000/svg">
<circle cx="65" cy="65" r="65" fill="#666666"/>
<g clip-path="url(#clip0)">
<path d="M107.479 40.4257L96.2108 22.2935C94.4947 19.606 91.5836 18 88.4301 18H41.5699C38.4164 18 35.5053 19.606 33.7785 22.3123L22.5214 40.4257C21.9937 41.2723 22.2427 42.3834 23.0793 42.9299C23.9111 43.4684 25.033 43.2488 25.5943 42.4237C26.6282 40.9057 28.3369 40 30.1664 40H99.8336C101.663 40 103.372 40.9057 104.406 42.4237C104.762 42.944 105.334 43.2267 105.92 43.2267C106.265 43.2267 106.609 43.1313 106.917 42.9299C107.757 42.3834 108.006 41.2723 107.479 40.4257Z" fill="#607D8B"/>
<path d="M107.434 86.1961C105.718 83.6737 102.877 82.1664 99.8336 82.1664H30.1664C27.123 82.1664 24.2817 83.6737 22.4522 86.3653C21.5022 87.8833 21 89.6027 21 91.3336V96.8336C21 101.886 25.1102 106 30.1664 106H99.8336C104.89 106 109 101.886 109 96.8336V91.3336C109 89.6027 108.498 87.8833 107.434 86.1961Z" fill="#455A64"/>
<path d="M107.434 64.1961C105.718 61.6737 102.877 60.1664 99.8336 60.1664H30.1664C27.123 60.1664 24.2817 61.6737 22.4522 64.3653C21.5022 65.8833 21 67.6027 21 69.3336V73C21 78.0529 25.1102 82.1664 30.1664 82.1664H99.8336C104.89 82.1664 109 78.0529 109 73V69.3336C109 67.6027 108.498 65.8833 107.434 64.1961Z" fill="#607D8B"/>
<path d="M107.434 40.3632C105.718 37.8401 102.877 36.3336 99.8336 36.3336H30.1664C27.123 36.3336 24.2817 37.8401 22.4522 40.5317C21.5022 42.0497 21 43.7692 21 45.5V51C21 56.0529 25.1102 60.1664 30.1664 60.1664H99.8336C104.89 60.1664 109 56.0529 109 51V45.5C109 43.7692 108.498 42.0497 107.434 40.3632Z" fill="#455A64"/>
<path d="M39.3336 49.1664C39.3336 52.2045 36.8709 54.6664 33.8336 54.6664C30.7955 54.6664 28.3336 52.2045 28.3336 49.1664C28.3336 46.1291 30.7955 43.6664 33.8336 43.6664C36.8709 43.6664 39.3336 46.1291 39.3336 49.1664Z" fill="#4CAF50"/>
<path d="M39.3336 71.1664C39.3336 74.2045 36.8709 76.6664 33.8336 76.6664C30.7955 76.6664 28.3336 74.2045 28.3336 71.1664C28.3336 68.1291 30.7955 65.6664 33.8336 65.6664C36.8709 65.6664 39.3336 68.1291 39.3336 71.1664Z" fill="#4CAF50"/>
<path d="M39.3336 93.1664C39.3336 96.2045 36.8709 98.6664 33.8336 98.6664C30.7955 98.6664 28.3336 96.2045 28.3336 93.1664C28.3336 90.1291 30.7955 87.6664 33.8336 87.6664C36.8709 87.6664 39.3336 90.1291 39.3336 93.1664Z" fill="#4CAF50"/>
<path d="M99.8336 62H30.1664C25.1102 62 21 57.8898 21 52.8336V45.5C21 40.4438 25.1102 36.3336 30.1664 36.3336H99.8336C104.89 36.3336 109 40.4438 109 45.5V52.8336C109 57.8898 104.89 62 99.8336 62ZM30.1664 40C27.1345 40 24.6664 42.4673 24.6664 45.5V52.8336C24.6664 55.8655 27.1345 58.3336 30.1664 58.3336H99.8336C102.866 58.3336 105.334 55.8655 105.334 52.8336V45.5C105.334 42.4673 102.866 40 99.8336 40H30.1664Z" fill="black"/>
<path d="M33.8336 54.6664C30.8009 54.6664 28.3336 52.1991 28.3336 49.1664C28.3336 46.1345 30.8009 43.6664 33.8336 43.6664C36.8655 43.6664 39.3336 46.1345 39.3336 49.1664C39.3336 52.1991 36.8655 54.6664 33.8336 54.6664ZM33.8336 47.3336C32.8251 47.3336 32 48.158 32 49.1664C32 50.1749 32.8251 51 33.8336 51C34.842 51 35.6664 50.1749 35.6664 49.1664C35.6664 48.158 34.842 47.3336 33.8336 47.3336Z" fill="black"/>
<path d="M96.1664 47.3336H66.8336C65.8211 47.3336 65 46.5118 65 45.5C65 44.4882 65.8211 43.6664 66.8336 43.6664H96.1664C97.1789 43.6664 98 44.4882 98 45.5C98 46.5118 97.1789 47.3336 96.1664 47.3336Z" fill="black"/>
<path d="M96.1664 54.6664H66.8336C65.8211 54.6664 65 53.8453 65 52.8336C65 51.8211 65.8211 51 66.8336 51H96.1664C97.1789 51 98 51.8211 98 52.8336C98 53.8453 97.1789 54.6664 96.1664 54.6664Z" fill="black"/>
<path d="M99.8336 84H30.1664C25.1102 84 21 79.8898 21 74.8336V67.5C21 62.4438 25.1102 58.3336 30.1664 58.3336H99.8336C104.89 58.3336 109 62.4438 109 67.5V74.8336C109 79.8898 104.89 84 99.8336 84ZM30.1664 62C27.1345 62 24.6664 64.4673 24.6664 67.5V74.8336C24.6664 77.8655 27.1345 80.3336 30.1664 80.3336H99.8336C102.866 80.3336 105.334 77.8655 105.334 74.8336V67.5C105.334 64.4673 102.866 62 99.8336 62H30.1664Z" fill="black"/>
<path d="M33.8336 76.6664C30.8009 76.6664 28.3336 74.1991 28.3336 71.1664C28.3336 68.1345 30.8009 65.6664 33.8336 65.6664C36.8655 65.6664 39.3336 68.1345 39.3336 71.1664C39.3336 74.1991 36.8655 76.6664 33.8336 76.6664ZM33.8336 69.3336C32.8251 69.3336 32 70.158 32 71.1664C32 72.1749 32.8251 73 33.8336 73C34.842 73 35.6664 72.1749 35.6664 71.1664C35.6664 70.158 34.842 69.3336 33.8336 69.3336Z" fill="black"/>
<path d="M96.1664 69.3336H66.8336C65.8211 69.3336 65 68.5118 65 67.5C65 66.4882 65.8211 65.6664 66.8336 65.6664H96.1664C97.1789 65.6664 98 66.4882 98 67.5C98 68.5118 97.1789 69.3336 96.1664 69.3336Z" fill="black"/>
<path d="M96.1664 76.6664H66.8336C65.8211 76.6664 65 75.8453 65 74.8336C65 73.8211 65.8211 73 66.8336 73H96.1664C97.1789 73 98 73.8211 98 74.8336C98 75.8453 97.1789 76.6664 96.1664 76.6664Z" fill="black"/>
<path d="M99.8336 106H30.1664C25.1102 106 21 101.89 21 96.8336V89.5C21 84.4438 25.1102 80.3336 30.1664 80.3336H99.8336C104.89 80.3336 109 84.4438 109 89.5V96.8336C109 101.89 104.89 106 99.8336 106ZM30.1664 84C27.1345 84 24.6664 86.4673 24.6664 89.5V96.8336C24.6664 99.8655 27.1345 102.334 30.1664 102.334H99.8336C102.866 102.334 105.334 99.8655 105.334 96.8336V89.5C105.334 86.4673 102.866 84 99.8336 84H30.1664Z" fill="black"/>
<path d="M33.8336 98.6664C30.8009 98.6664 28.3336 96.1991 28.3336 93.1664C28.3336 90.1345 30.8009 87.6664 33.8336 87.6664C36.8655 87.6664 39.3336 90.1345 39.3336 93.1664C39.3336 96.1991 36.8655 98.6664 33.8336 98.6664ZM33.8336 91.3336C32.8251 91.3336 32 92.158 32 93.1664C32 94.1749 32.8251 95 33.8336 95C34.842 95 35.6664 94.1749 35.6664 93.1664C35.6664 92.158 34.842 91.3336 33.8336 91.3336Z" fill="black"/>
<path d="M96.1664 91.3336H66.8336C65.8211 91.3336 65 90.5118 65 89.5C65 88.4882 65.8211 87.6664 66.8336 87.6664H96.1664C97.1789 87.6664 98 88.4882 98 89.5C98 90.5118 97.1789 91.3336 96.1664 91.3336Z" fill="black"/>
<path d="M96.1664 98.6664H66.8336C65.8211 98.6664 65 97.8453 65 96.8336C65 95.8211 65.8211 95 66.8336 95H96.1664C97.1789 95 98 95.8211 98 96.8336C98 97.8453 97.1789 98.6664 96.1664 98.6664Z" fill="black"/>
<path d="M105.994 43.3516C105.381 43.3516 104.783 43.0434 104.435 42.4861L93.0942 24.2587C92.0858 22.6386 90.3368 21.6664 88.426 21.6664H41.574C39.6632 21.6664 37.9142 22.6386 36.9058 24.2627L25.5648 42.4861C25.033 43.3516 23.8964 43.604 23.0424 43.0763C22.1769 42.5372 21.9164 41.4119 22.4522 40.5499L33.7892 22.3264C35.4758 19.6133 38.3835 18 41.574 18H88.4227C91.6124 18 94.5202 19.6133 96.2067 22.3231L107.548 40.5539C108.084 41.4119 107.819 42.5412 106.958 43.0763C106.657 43.2636 106.327 43.3516 105.994 43.3516Z" fill="black"/>
</g>
<defs>
<clipPath id="clip0">
<rect width="88" height="88" fill="white" transform="translate(21 18)"/>
</clipPath>
</defs>
</svg>
