<svg width="130" height="130" viewBox="0 0 130 130" fill="none" xmlns="http://www.w3.org/2000/svg">
<circle cx="65" cy="65" r="65" fill="#666666"/>
<g clip-path="url(#clip0)">
<path d="M89.0625 52.2813H34.6875C29.1811 52.2813 24.7188 47.8189 24.7188 42.3125C24.7188 36.8061 29.1811 32.3438 34.6875 32.3438H89.0625C94.5689 32.3438 99.0312 36.8061 99.0312 42.3125C99.0312 47.8189 94.5689 52.2813 89.0625 52.2813Z" fill="#CFD8DC"/>
<path d="M89.0625 72.2187H34.6875C29.1811 72.2187 24.7188 67.7564 24.7188 62.25C24.7188 56.7436 29.1811 52.2812 34.6875 52.2812H89.0625C94.5689 52.2812 99.0312 56.7436 99.0312 62.25C99.0312 67.7564 94.5689 72.2187 89.0625 72.2187Z" fill="#90A4AE"/>
<path d="M89.0625 92.1562H34.6875C29.1811 92.1562 24.7188 87.6939 24.7188 82.1875C24.7188 76.6811 29.1811 72.2188 34.6875 72.2188H89.0625C94.5689 72.2188 99.0312 76.6811 99.0312 82.1875C99.0312 87.6939 94.5689 92.1562 89.0625 92.1562Z" fill="#CFD8DC"/>
<path d="M105.023 70.8775L88.033 65.0993C87.5255 64.9252 86.9782 64.9252 86.4707 65.0993L69.4803 70.8775C68.4943 71.211 67.8345 72.1354 67.8345 73.1757V86.1786C67.8345 102.053 85.5499 109.766 86.3039 110.085C86.9129 110.343 87.5908 110.343 88.1998 110.085C88.9538 109.766 106.669 102.053 106.669 86.1786V73.1757C106.669 72.1354 106.009 71.2146 105.023 70.8775Z" fill="#4CAF50"/>
<path d="M89.0625 55H34.6875C27.6913 55 22 49.3088 22 42.3125C22 35.3163 27.6913 29.625 34.6875 29.625H89.0625C96.0587 29.625 101.75 35.3163 101.75 42.3125C101.75 49.3088 96.0587 55 89.0625 55ZM34.6875 35.0625C30.6891 35.0625 27.4375 38.3141 27.4375 42.3125C27.4375 46.3109 30.6891 49.5625 34.6875 49.5625H89.0625C93.0609 49.5625 96.3125 46.3109 96.3125 42.3125C96.3125 38.3141 93.0609 35.0625 89.0625 35.0625H34.6875Z" fill="black"/>
<path d="M40.125 45.9375C42.127 45.9375 43.75 44.3145 43.75 42.3125C43.75 40.3105 42.127 38.6875 40.125 38.6875C38.123 38.6875 36.5 40.3105 36.5 42.3125C36.5 44.3145 38.123 45.9375 40.125 45.9375Z" fill="black"/>
<path d="M54.625 45.9375C56.627 45.9375 58.25 44.3145 58.25 42.3125C58.25 40.3105 56.627 38.6875 54.625 38.6875C52.623 38.6875 51 40.3105 51 42.3125C51 44.3145 52.623 45.9375 54.625 45.9375Z" fill="black"/>
<path d="M55.5312 74.9375H34.6875C27.6912 74.9375 22 69.2463 22 62.25C22 58.8824 23.3666 55.6126 25.7483 53.2745C28.0501 50.9291 31.3199 49.5625 34.6875 49.5625H89.0625C92.5932 49.5625 95.9536 51.0379 98.2917 53.608C99.2995 54.7209 99.2161 56.4391 98.1032 57.4505C96.9904 58.4546 95.2794 58.3785 94.2607 57.262C92.9376 55.8047 91.0925 55 89.0625 55H34.6875C32.7445 55 30.9356 55.754 29.5944 57.1206C28.1915 58.4981 27.4375 60.307 27.4375 62.25C27.4375 66.2484 30.6891 69.5 34.6875 69.5H55.5312C57.032 69.5 58.25 70.718 58.25 72.2188C58.25 73.7195 57.032 74.9375 55.5312 74.9375Z" fill="black"/>
<path d="M40.125 65.875C42.127 65.875 43.75 64.252 43.75 62.25C43.75 60.248 42.127 58.625 40.125 58.625C38.123 58.625 36.5 60.248 36.5 62.25C36.5 64.252 38.123 65.875 40.125 65.875Z" fill="black"/>
<path d="M54.625 65.875C56.627 65.875 58.25 64.252 58.25 62.25C58.25 60.248 56.627 58.625 54.625 58.625C52.623 58.625 51 60.248 51 62.25C51 64.252 52.623 65.875 54.625 65.875Z" fill="black"/>
<path d="M55.5312 94.875H34.6875C27.6913 94.875 22 89.1838 22 82.1875C22 78.8199 23.3666 75.5501 25.7483 73.212C28.0501 70.8666 31.3199 69.5 34.6875 69.5H53.7188C55.2195 69.5 56.4375 70.718 56.4375 72.2188C56.4375 73.7195 55.2195 74.9375 53.7188 74.9375H34.6875C32.7445 74.9375 30.9356 75.6915 29.5944 77.0581C28.1915 78.4356 27.4375 80.2445 27.4375 82.1875C27.4375 86.1859 30.6891 89.4375 34.6875 89.4375H55.5312C57.032 89.4375 58.25 90.6555 58.25 92.1562C58.25 93.657 57.032 94.875 55.5312 94.875Z" fill="black"/>
<path d="M40.125 85.8125C42.127 85.8125 43.75 84.1895 43.75 82.1875C43.75 80.1855 42.127 78.5625 40.125 78.5625C38.123 78.5625 36.5 80.1855 36.5 82.1875C36.5 84.1895 38.123 85.8125 40.125 85.8125Z" fill="black"/>
<path d="M54.625 85.8125C56.627 85.8125 58.25 84.1895 58.25 82.1875C58.25 80.1855 56.627 78.5625 54.625 78.5625C52.623 78.5625 51 80.1855 51 82.1875C51 84.1895 52.623 85.8125 54.625 85.8125Z" fill="black"/>
<path d="M87.25 113C86.873 113 86.4996 112.924 86.148 112.768C85.307 112.395 65.5 103.423 65.5 85.0368V70.7942C65.5 69.5979 66.2794 68.543 67.4212 68.195L86.4525 62.3697C86.9709 62.2065 87.5291 62.2065 88.0439 62.3697L107.075 68.195C108.217 68.543 108.996 69.5979 108.996 70.7942V85.0368C108.996 103.423 89.1894 112.395 88.3484 112.764C88.0004 112.924 87.627 113 87.25 113ZM70.9375 72.806V85.0368C70.9375 97.7025 83.4147 105.232 87.2464 107.247C91.0744 105.224 103.562 97.6554 103.562 85.0368V72.806L87.25 67.8108L70.9375 72.806Z" fill="black"/>
<path d="M85.4375 94.875C84.7161 94.875 84.0238 94.5887 83.5163 94.0775L77.1725 87.7338C76.1104 86.6717 76.1104 84.9498 77.1725 83.8877C78.2346 82.8255 79.9565 82.8255 81.0186 83.8877L85.3686 88.234L95.2286 77.6128C96.2545 76.5108 97.9728 76.4528 99.0748 77.4714C100.173 78.4937 100.235 80.2155 99.2161 81.3175L87.4349 94.005C86.931 94.5415 86.2314 94.8569 85.4919 94.8714C85.4701 94.875 85.4556 94.875 85.4375 94.875Z" fill="black"/>
</g>
<defs>
<clipPath id="clip0">
<rect width="87" height="87" fill="white" transform="translate(22 26)"/>
</clipPath>
</defs>
</svg>
