<svg width="322" height="322" viewBox="0 0 322 322" fill="none" xmlns="http://www.w3.org/2000/svg">
<path d="M286.781 271.688H276.719V122.008C276.712 116.339 274.458 110.904 270.449 106.895C266.44 102.886 261.005 100.631 255.336 100.625H130.812V90.5625H168.547C176.779 90.5612 184.708 87.4554 190.75 81.8651C196.793 76.2747 200.505 68.6112 201.146 60.4041C201.786 52.1971 199.308 44.0504 194.206 37.5902C189.104 31.13 181.753 26.8316 173.621 25.5531C171.475 21.6434 168.094 18.5556 164.006 16.7733C159.918 14.991 155.354 14.6149 151.029 15.7038C146.969 11.5261 141.936 8.42085 136.381 6.66633C130.826 4.91181 124.923 4.56281 119.2 5.65062C113.477 6.73842 108.113 9.22903 103.589 12.8993C99.0654 16.5695 95.5228 21.3048 93.2787 26.6807C85.8351 29.0367 79.48 33.9781 75.3622 40.6115C71.2444 47.2449 69.6357 55.1327 70.8269 62.8489C72.0181 70.5651 75.9306 77.6005 81.8571 82.6833C87.7836 87.7661 95.333 90.5609 103.141 90.5625H120.75V100.625H66.6641C60.9949 100.631 55.5598 102.886 51.5511 106.895C47.5424 110.904 45.2876 116.339 45.2812 122.008V271.688H35.2188C33.8844 271.688 32.6047 272.218 31.6611 273.161C30.7176 274.105 30.1875 275.384 30.1875 276.719V288.039C30.1947 294.375 32.7148 300.45 37.1951 304.93C41.6754 309.41 47.7499 311.93 54.0859 311.938H267.914C274.25 311.93 280.325 309.41 284.805 304.93C289.285 300.45 291.805 294.375 291.812 288.039V276.719C291.812 275.384 291.282 274.105 290.339 273.161C289.395 272.218 288.116 271.688 286.781 271.688ZM103.141 80.5C97.5688 80.4982 92.1932 78.4418 88.0428 74.7243C83.8923 71.0069 81.2584 65.8896 80.6451 60.3516C80.0317 54.8136 81.4821 49.2439 84.7185 44.7083C87.955 40.1728 92.7503 36.99 98.1867 35.769C99.0386 35.579 99.8263 35.1706 100.473 34.584C101.119 33.9974 101.601 33.2528 101.873 32.4233C103.288 28.0965 105.852 24.235 109.29 21.2508C112.728 18.2666 116.911 16.2715 121.394 15.4783C125.877 14.6852 130.491 15.1237 134.744 16.7472C138.997 18.3706 142.73 21.1181 145.544 24.6965C146.25 25.5921 147.239 26.2212 148.35 26.4808C149.46 26.7404 150.626 26.6151 151.656 26.1254C153.003 25.4837 154.477 25.1525 155.969 25.1563C158.056 25.1577 160.091 25.8075 161.793 27.0158C163.495 28.2241 164.779 29.9313 165.468 31.9013C165.796 32.8384 166.393 33.6578 167.185 34.2563C167.977 34.8548 168.928 35.2056 169.919 35.2647C173.419 35.4754 176.822 36.4966 179.859 38.2475C182.897 39.9985 185.486 42.4313 187.423 45.3541C189.359 48.2769 190.59 51.6097 191.018 55.0896C191.446 58.5695 191.06 62.1013 189.889 65.4062H176.094C174.759 65.4062 173.48 65.9363 172.536 66.8799C171.593 67.8234 171.062 69.1031 171.062 70.4375C171.062 71.7719 171.593 73.0516 172.536 73.9951C173.48 74.9387 174.759 75.4688 176.094 75.4688H182.756C178.738 78.7274 173.72 80.504 168.547 80.5H130.812V69.5721C134.169 68.3853 136.999 66.0499 138.8 62.9788C140.602 59.9076 141.26 56.2985 140.658 52.7892C140.056 49.2799 138.232 46.0965 135.51 43.8015C132.788 41.5066 129.342 40.2479 125.781 40.2479C122.221 40.2479 118.775 41.5066 116.053 43.8015C113.33 46.0965 111.507 49.2799 110.905 52.7892C110.303 56.2985 110.961 59.9076 112.762 62.9788C114.564 66.0499 117.393 68.3853 120.75 69.5721V80.5H103.141ZM125.781 60.375C124.786 60.375 123.813 60.0799 122.986 59.5271C122.159 58.9742 121.514 58.1885 121.133 57.2691C120.752 56.3498 120.653 55.3382 120.847 54.3622C121.041 53.3862 121.52 52.4898 122.224 51.7861C122.927 51.0825 123.824 50.6033 124.8 50.4092C125.776 50.215 126.787 50.3147 127.707 50.6955C128.626 51.0763 129.412 51.7212 129.965 52.5485C130.517 53.3759 130.812 54.3487 130.812 55.3438C130.811 56.6777 130.28 57.9565 129.337 58.8997C128.394 59.8429 127.115 60.3735 125.781 60.375ZM55.3438 122.008C55.3472 119.007 56.541 116.129 58.6633 114.007C60.7855 111.885 63.6628 110.691 66.6641 110.688H120.75V125.781C120.75 127.116 121.28 128.395 122.224 129.339C123.167 130.282 124.447 130.812 125.781 130.812H166.031V140.875H150.938C144.623 140.868 138.381 142.211 132.628 144.814C126.875 147.418 121.746 151.221 117.583 155.969H95.5938V150.072C98.9507 148.885 101.78 146.55 103.582 143.479C105.383 140.408 106.041 136.798 105.439 133.289C104.837 129.78 103.013 126.596 100.291 124.302C97.569 122.007 94.1231 120.748 90.5625 120.748C87.0019 120.748 83.556 122.007 80.8338 124.302C78.1115 126.596 76.2882 129.78 75.6861 133.289C75.084 136.798 75.7419 140.408 77.5435 143.479C79.3451 146.55 82.1743 148.885 85.5312 150.072V161C85.5312 162.334 86.0613 163.614 87.0049 164.558C87.9484 165.501 89.2281 166.031 90.5625 166.031H110.93C108.765 170.54 107.379 175.383 106.829 180.354L105.822 189.415L96.439 203.49C96.0433 204.084 95.7783 204.755 95.6616 205.458C95.545 206.162 95.5793 206.883 95.7624 207.572C95.9454 208.262 96.273 208.904 96.7234 209.458C97.1738 210.011 97.7367 210.462 98.3748 210.781L105.656 214.422V231.437C105.656 232.431 105.95 233.402 106.501 234.229L116.564 249.322C117.023 250.011 117.646 250.576 118.376 250.967C119.106 251.358 119.922 251.562 120.75 251.562H135.844V256.594C135.844 257.928 136.374 259.208 137.317 260.151C138.261 261.095 139.541 261.625 140.875 261.625H211.312C212.308 261.625 213.28 261.33 214.108 260.777C214.935 260.224 215.58 259.438 215.961 258.519C216.342 257.6 216.441 256.588 216.247 255.612C216.053 254.636 215.574 253.74 214.87 253.036L201.25 239.416V226.406C201.25 225.072 200.72 223.792 199.776 222.849C198.833 221.905 197.553 221.375 196.219 221.375V206.281C196.219 205.347 195.959 204.431 195.467 203.636C194.976 202.842 194.273 202.199 193.438 201.781L184.105 197.115L178.178 191.187H191.188C192.522 191.187 193.802 190.657 194.745 189.714C195.689 188.77 196.219 187.491 196.219 186.156V181.125H206.281V191.187C206.281 192.522 206.811 193.802 207.755 194.745C208.698 195.689 209.978 196.219 211.312 196.219H221.375C221.656 196.217 221.937 196.192 222.215 196.143C223.386 199.513 225.713 202.359 228.783 204.176C231.853 205.993 235.467 206.665 238.985 206.071C242.502 205.477 245.696 203.656 247.999 200.931C250.302 198.207 251.565 194.755 251.565 191.187C251.565 187.62 250.302 184.168 247.999 181.444C245.696 178.719 242.502 176.898 238.985 176.304C235.467 175.71 231.853 176.382 228.783 178.199C225.713 180.016 223.386 182.862 222.215 186.232C221.937 186.183 221.656 186.158 221.375 186.156H216.344V176.094C216.344 174.759 215.814 173.48 214.87 172.536C213.927 171.593 212.647 171.062 211.312 171.062H196.219V161H211.312C212.647 161 213.927 160.47 214.87 159.526C215.814 158.583 216.344 157.303 216.344 155.969V145.906H222.24C223.427 149.263 225.763 152.092 228.834 153.894C231.905 155.696 235.514 156.353 239.023 155.751C242.533 155.149 245.716 153.326 248.011 150.604C250.306 147.881 251.565 144.436 251.565 140.875C251.565 137.314 250.306 133.869 248.011 131.146C245.716 128.424 242.533 126.601 239.023 125.999C235.514 125.397 231.905 126.054 228.834 127.856C225.763 129.658 223.427 132.487 222.24 135.844H211.312C209.978 135.844 208.698 136.374 207.755 137.317C206.811 138.261 206.281 139.541 206.281 140.875V150.937H196.219V145.906C196.219 144.572 195.689 143.292 194.745 142.349C193.802 141.405 192.522 140.875 191.188 140.875H176.094V125.781C176.094 124.447 175.564 123.167 174.62 122.224C173.677 121.28 172.397 120.75 171.062 120.75H130.812V110.688H255.336C258.337 110.691 261.215 111.885 263.337 114.007C265.459 116.129 266.653 119.007 266.656 122.008V271.688H191.188C190.527 271.687 189.873 271.818 189.262 272.07C188.652 272.323 188.097 272.694 187.63 273.161L179.041 281.75H142.959L134.37 273.161C133.903 272.694 133.348 272.323 132.738 272.07C132.127 271.818 131.473 271.687 130.812 271.688H55.3438V122.008ZM186.156 181.125H155.969V150.937H186.156V181.125ZM177.567 204.808C177.949 205.191 178.391 205.509 178.875 205.751L186.156 209.391V221.375H176.094V216.344C176.094 215.563 175.912 214.792 175.563 214.094C175.213 213.395 174.706 212.787 174.081 212.319L155.969 198.734V191.187H163.947L177.567 204.808ZM115.719 226.406H125.781C127.116 226.406 128.395 225.876 129.339 224.933C130.282 223.989 130.812 222.709 130.812 221.375C130.812 220.041 130.282 218.761 129.339 217.817C128.395 216.874 127.116 216.344 125.781 216.344H115.719V211.312C115.719 210.378 115.459 209.462 114.967 208.668C114.476 207.873 113.773 207.231 112.938 206.813L107.973 204.33L114.874 193.979C115.32 193.309 115.599 192.543 115.688 191.743L116.83 181.465C117.439 175.936 119.385 170.639 122.502 166.031H145.906V201.25C145.906 202.023 146.085 202.785 146.428 203.477C146.77 204.169 147.268 204.773 147.883 205.242C147.896 205.252 147.905 205.265 147.919 205.275L150.938 207.539V229.353L138.791 241.5H123.442L115.719 229.914V226.406ZM145.906 155.969H133.033C136.965 153.561 141.344 151.974 145.906 151.304V155.969ZM145.906 248.615L159.526 234.995C159.994 234.528 160.364 233.973 160.617 233.363C160.87 232.752 161 232.098 161 231.437V215.086L166.031 218.859V251.562H145.906V248.615ZM176.094 231.437H191.188V241.5C191.187 242.161 191.318 242.815 191.57 243.425C191.823 244.036 192.194 244.591 192.661 245.058L199.166 251.562H176.094V231.437ZM90.5625 140.875C89.5674 140.875 88.5947 140.58 87.7673 140.027C86.9399 139.474 86.295 138.688 85.9142 137.769C85.5334 136.85 85.4338 135.838 85.6279 134.862C85.8221 133.886 86.3012 132.99 87.0049 132.286C87.7085 131.582 88.605 131.103 89.5809 130.909C90.5569 130.715 91.5685 130.815 92.4879 131.195C93.4072 131.576 94.193 132.221 94.7458 133.049C95.2987 133.876 95.5938 134.849 95.5938 135.844C95.5923 137.178 95.0617 138.457 94.1185 139.4C93.1753 140.343 91.8964 140.873 90.5625 140.875ZM231.438 191.187C231.438 190.192 231.733 189.22 232.285 188.392C232.838 187.565 233.624 186.92 234.543 186.539C235.463 186.158 236.474 186.059 237.45 186.253C238.426 186.447 239.323 186.926 240.026 187.63C240.73 188.333 241.209 189.23 241.403 190.206C241.597 191.182 241.498 192.194 241.117 193.113C240.736 194.032 240.091 194.818 239.264 195.371C238.437 195.924 237.464 196.219 236.469 196.219C235.135 196.217 233.856 195.687 232.913 194.743C231.97 193.8 231.439 192.521 231.438 191.187ZM231.438 140.875C231.438 139.88 231.733 138.907 232.285 138.08C232.838 137.252 233.624 136.608 234.543 136.227C235.463 135.846 236.474 135.746 237.45 135.94C238.426 136.135 239.323 136.614 240.026 137.317C240.73 138.021 241.209 138.917 241.403 139.893C241.597 140.869 241.498 141.881 241.117 142.8C240.736 143.72 240.091 144.505 239.264 145.058C238.437 145.611 237.464 145.906 236.469 145.906C235.135 145.905 233.856 145.374 232.913 144.431C231.97 143.488 231.439 142.209 231.438 140.875ZM281.75 288.039C281.746 291.707 280.287 295.224 277.693 297.818C275.099 300.412 271.582 301.871 267.914 301.875H54.0859C50.4177 301.871 46.9009 300.412 44.307 297.818C41.7132 295.224 40.2542 291.707 40.25 288.039V281.75H128.729L137.317 290.339C137.784 290.806 138.339 291.177 138.95 291.43C139.56 291.682 140.214 291.813 140.875 291.813H181.125C181.786 291.813 182.44 291.682 183.05 291.43C183.661 291.177 184.216 290.806 184.683 290.339L193.271 281.75H281.75V288.039Z" fill="#37A843"/>
<path d="M176.094 161H166.031V171.062H176.094V161Z" fill="#37A843"/>
<path d="M128.297 191.188C132.465 191.188 135.844 187.809 135.844 183.641C135.844 179.473 132.465 176.094 128.297 176.094C124.129 176.094 120.75 179.473 120.75 183.641C120.75 187.809 124.129 191.188 128.297 191.188Z" fill="#37A843"/>
<path d="M70.4375 211.312C69.1031 211.312 67.8234 211.843 66.8799 212.786C65.9363 213.73 65.4062 215.009 65.4062 216.344V231.438C65.4062 232.772 65.9363 234.052 66.8799 234.995C67.8234 235.939 69.1031 236.469 70.4375 236.469C71.7719 236.469 73.0516 235.939 73.9951 234.995C74.9387 234.052 75.4688 232.772 75.4688 231.438V216.344C75.4688 215.009 74.9387 213.73 73.9951 212.786C73.0516 211.843 71.7719 211.312 70.4375 211.312Z" fill="#37A843"/>
<path d="M70.4375 246.531C69.1031 246.531 67.8234 247.061 66.8799 248.005C65.9363 248.948 65.4062 250.228 65.4062 251.562V256.594C65.4062 257.928 65.9363 259.208 66.8799 260.151C67.8234 261.095 69.1031 261.625 70.4375 261.625C71.7719 261.625 73.0516 261.095 73.9951 260.151C74.9387 259.208 75.4688 257.928 75.4688 256.594V251.562C75.4688 250.228 74.9387 248.948 73.9951 248.005C73.0516 247.061 71.7719 246.531 70.4375 246.531Z" fill="#37A843"/>
<path d="M150.938 75.4688H161C162.334 75.4688 163.614 74.9387 164.558 73.9951C165.501 73.0516 166.031 71.7719 166.031 70.4375C166.031 69.1031 165.501 67.8234 164.558 66.8799C163.614 65.9363 162.334 65.4062 161 65.4062H150.938C149.603 65.4062 148.323 65.9363 147.38 66.8799C146.436 67.8234 145.906 69.1031 145.906 70.4375C145.906 71.7719 146.436 73.0516 147.38 73.9951C148.323 74.9387 149.603 75.4688 150.938 75.4688Z" fill="#37A843"/>
</svg>
